Coordinates
version=1
nRows=28
nColumns=23
inDegrees=yes

Units are S.I. units (second, meters, Newtons, ...)
If the header above contains a line with 'inDegrees', this indicates whether rotational values are in degrees (yes) or radians (no).

endheader
time	pelvis_tilt	pelvis_list	pelvis_rotation	pelvis_tx	pelvis_ty	pelvis_tz	hip_flexion_r	hip_adduction_r	hip_rotation_r	knee_angle_r	knee_angle_r_beta	ankle_angle_r	subtalar_angle_r	mtp_angle_r	hip_flexion_l	hip_adduction_l	hip_rotation_l	knee_angle_l	knee_angle_l_beta	ankle_angle_l	subtalar_angle_l	mtp_angle_l
     22.50000000	     -2.20651829	     -0.72510900	      1.11818489	      2.26369270	      0.99637121	      1.02178869	    -11.76527490	      0.65828882	    -12.63095678	     27.56866932	      0.48116405	    -10.48684595	     -4.55234129	      0.00000000	     25.26090982	      0.55541869	     -2.88691163	     23.91225606	      0.41734760	     10.30944961	     -2.96727678	      0.00000000
     22.50666667	     -2.30616061	     -0.59356118	      1.26706313	      2.26463530	      0.99678045	      1.02064077	    -11.72939003	      0.27416719	    -12.84992947	     28.75498857	      0.50186923	    -12.20798821	     -5.34497201	      0.00000000	     24.52500928	      1.14862246	     -2.62455659	     21.04020743	      0.36722089	     10.72002386	     -1.86352669	      0.00000000
     22.51333333	     -2.38650880	     -0.48154315	      1.45447268	      2.26562722	      0.99672326	      1.01951750	    -11.61195299	     -0.06838140	    -13.01195076	     30.12959060	      0.52586056	    -13.71413959	     -6.24039580	      0.00000000	     23.82640003	      1.69547657	     -2.32008803	     18.55377299	      0.32382443	     11.05699341	     -1.01974126	      0.00000000
     22.52000000	     -2.25608220	     -0.29408430	      1.62853329	      2.26632365	      0.99652683	      1.01849045	    -11.55946596	     -0.44534730	    -12.97334321	     31.74949224	      0.55413318	    -15.09882463	     -7.44178262	      0.00000000	     22.80567667	      2.39628378	     -1.38349562	     16.13162793	      0.28155002	     10.70959357	     -1.51144309	      0.00000000
     22.52666667	     -2.29473304	     -0.11446156	      1.90563068	      2.26696076	      0.99543046	      1.01740453	    -11.16650479	     -0.85198537	    -13.09184466	     33.71943142	      0.58851510	    -16.14401738	     -8.46950071	      0.00000000	     22.33096823	      2.93413488	     -1.14523490	     14.70893287	      0.25671931	     10.80191115	     -0.91431673	      0.00000000
     22.53333333	     -2.27909835	      0.13094499	      2.17663800	      2.26740242	      0.99397505	      1.01639587	    -10.68484669	     -1.31463860	    -13.10253508	     35.94097128	      0.62728829	    -16.94577300	     -9.61076034	      0.00000000	     21.87948087	      3.50990362	     -0.90987043	     13.72236063	      0.23950037	     10.56766399	     -0.74694426	      0.00000000
     22.54000000	     -2.32077160	      0.42553722	      2.52363427	      2.26760715	      0.99202708	      1.01537893	     -9.99230297	     -1.79872876	    -13.05552205	     38.42787682	      0.67069297	    -17.40173834	    -10.73639786	      0.00000000	     21.55896438	      4.19243766	     -0.27967684	     13.15022952	      0.22951480	      9.99964751	     -1.40900224	      0.00000000
     22.54666667	     -2.27767555	      0.79842046	      2.88471972	      2.26769726	      0.98971605	      1.01441213	     -9.28588355	     -2.34682849	    -12.94964568	     41.10035280	      0.71733648	    -17.60002616	    -11.88348446	      0.00000000	     21.35894613	      4.86108102	     -0.09842135	     13.28977793	      0.23195038	      9.40109401	     -1.67231473	      0.00000000
     22.55333333	     -2.06851415	      1.27857034	      3.33352265	      2.26768727	      0.98721721	      1.01338043	     -8.70435311	     -3.00011441	    -12.93794178	     43.88187886	      0.76588327	    -17.61616784	    -13.11027114	      0.00000000	     21.09217350	      5.62959239	      0.06102428	     13.94806746	      0.24343970	      8.73976242	     -2.07308209	      0.00000000
     22.56000000	     -2.02855614	      1.73626492	      3.76407755	      2.26737079	      0.98407647	      1.01240011	     -7.77558096	     -3.66356363	    -12.87105757	     46.91194333	      0.81876787	    -17.34234262	    -14.11774171	      0.00000000	     21.15307137	      6.37071913	      0.32468515	     15.12668659	      0.26401049	      7.94448541	     -2.87659777	      0.00000000
     22.56666667	     -2.06175705	      2.16530805	      4.25454021	      2.26693582	      0.98043871	      1.01140107	     -6.67440614	     -4.33953053	    -12.88587648	     50.08147562	      0.87408664	    -16.75005103	    -14.96250703	      0.00000000	     21.41570403	      7.09265529	      0.67529968	     16.78437758	      0.29294265	      7.09996116	     -3.94550986	      0.00000000
     22.57333333	     -1.95889048	      2.62665242	      4.78136154	      2.26637141	      0.97662902	      1.01034516	     -5.68143821	     -5.05228769	    -12.92968262	     53.25991538	      0.92956088	    -16.10187913	    -15.75857837	      0.00000000	     21.61555010	      7.83829838	      1.03555047	     18.82762990	      0.32860413	      6.47043255	     -5.06683322	      0.00000000
     22.58000000	     -1.80259186	      3.07126970	      5.32045933	      2.26570175	      0.97257179	      1.00930067	     -4.69271740	     -5.79115137	    -13.03157597	     56.45160264	      0.98526633	    -15.40064023	    -16.49975094	      0.00000000	     21.82926583	      8.55241062	      1.41094362	     21.18538076	      0.36975465	      6.14997687	     -6.22213383	      0.00000000
     22.58666667	     -1.63166902	      3.50623616	      5.85311228	      2.26490738	      0.96829657	      1.00827011	     -3.66117261	     -6.55711478	    -13.13758135	     59.63409819	      1.04081136	    -14.68688027	    -17.15555367	      0.00000000	     22.06236942	      9.25154210	      1.80290489	     23.74452409	      0.41442012	      6.16101558	     -7.35417365	      0.00000000
     22.59333333	     -1.45955119	      3.91992204	      6.34281652	      2.26398747	      0.96389400	      1.00729589	     -2.55979260	     -7.35139191	    -13.21797316	     62.78813936	      1.09585976	    -13.95556545	    -17.74097425	      0.00000000	     22.29322166	      9.91653675	      2.18419497	     26.38396660	      0.46048709	      6.51457164	     -8.47805099	      0.00000000
     22.60000000	     -1.28704404	      4.27577698	      6.85084766	      2.26296466	      0.95945746	      1.00627957	     -1.42111833	     -8.13243620	    -13.33851210	     65.84663339	      1.14924055	    -13.30733042	    -18.32768365	      0.00000000	     22.48864420	     10.53625338	      2.60693121	     29.02714773	      0.50661930	      7.21314043	     -9.42659132	      0.00000000
     22.60666667	     -1.14547758	      4.63995592	      7.31395539	      2.26184329	      0.95502568	      1.00535895	     -0.18503415	     -8.93130662	    -13.36160012	     68.80696580	      1.20090810	    -12.65562829	    -18.85207247	      0.00000000	     22.65154476	     11.15144452	      2.98534039	     31.57852224	      0.55114919	      8.19964115	    -10.29516294	      0.00000000
     22.61333333	     -1.04924117	      4.96580243	      7.71650583	      2.26061407	      0.95071988	      1.00452544	      1.17472136	     -9.72467741	    -13.30286272	     71.65186169	      1.25056090	    -12.02726680	    -19.32666496	      0.00000000	     22.74992161	     11.71624223	      3.34237783	     33.93221235	      0.59222883	      9.37031772	    -11.02756405	      0.00000000
     22.62000000	     -1.03451145	      5.28737973	      8.01671963	      2.25931592	      0.94657898	      1.00385077	      2.71558294	    -10.51022646	    -13.06074363	     74.36732629	      1.29795470	    -11.35404925	    -19.70012301	      0.00000000	     22.79123699	     12.26252624	      3.66160820	     36.02906708	      0.62882585	     10.66167191	    -11.66167395	      0.00000000
     22.62666667	     -1.03217161	      5.56696603	      8.28470959	      2.25792493	      0.94276341	      1.00325609	      4.32730824	    -11.26055811	    -12.76803786	     76.89059719	      1.34199408	    -10.70767474	    -20.04279875	      0.00000000	     22.68381786	     12.73565082	      3.94666982	     37.83458147	      0.66033802	     12.00294379	    -12.15198776	      0.00000000
     22.63333333	     -1.10872593	      5.82385742	      8.52005471	      2.25651280	      0.93921056	      1.00271177	      6.07838869	    -11.98321506	    -12.39335579	     79.21748397	      1.38260592	    -10.03584233	    -20.32514652	      0.00000000	     22.49927626	     13.18263165	      4.23782926	     39.36930007	      0.68712391	     13.38357734	    -12.46553805	      0.00000000
     22.64000000	     -1.23162279	      6.05946422	      8.59881285	      2.25504174	      0.93605036	      1.00244389	      7.99274190	    -12.62220212	    -11.78361018	     81.35078795	      1.41983910	     -9.25386003	    -20.47090645	      0.00000000	     22.19461726	     13.54780642	      4.44769983	     40.57782981	      0.70821673	     14.70532819	    -12.75898660	      0.00000000
     22.64666667	     -1.36681458	      6.26933575	      8.65053445	      2.25361064	      0.93333247	      1.00224651	      9.94490716	    -13.20461293	    -11.13495233	     83.22351972	      1.45252443	     -8.43992161	    -20.55035501	      0.00000000	     21.73291755	     13.86030176	      4.66353394	     41.50316712	      0.72436692	     15.99213412	    -12.89432725	      0.00000000
     22.65333333	     -1.04209571	      6.30539546	      8.72031772	      2.25244968	      0.93195835	      1.00215571	     11.29208210	    -13.42172119	    -10.59762478	     84.58638044	      1.47631084	     -7.72960662	    -20.79649648	      0.00000000	     20.54282138	     13.91859482	      5.08179374	     42.07317339	      0.73431540	     17.23581243	    -13.09214771	      0.00000000
     22.66000000	     -1.61515909	      6.59876694	      8.49879108	      2.25095694	      0.92943471	      1.00225664	     13.93034705	    -14.09310274	     -9.56840233	     86.15304039	      1.50365422	     -6.65178811	    -20.32237393	      0.00000000	     20.31278781	     14.22954362	      4.95788716	     42.50270568	      0.74181216	     18.31998018	    -12.93460755	      0.00000000
     22.66666667	     -1.38432175	      6.48583247	      8.51509369	      2.24994386	      0.92896928	      1.00223932	     15.37340513	    -14.06766459	     -9.02433887	     86.94153296	      1.51741601	     -5.97778766	    -20.42920603	      0.00000000	     18.94082303	     14.11199771	      5.46178813	     42.55986636	      0.74280980	     19.23461320	    -12.96615894	      0.00000000
     22.67333333	     -1.35400862	      6.57586563	      8.26142062	      2.24890898	      0.92846509	      1.00257057	     17.16948250	    -14.24645227	     -8.16373454	     87.65929686	      1.52994335	     -4.96460708	    -20.12683906	      0.00000000	     17.72354139	     14.06287477	      5.47636245	     42.43056760	      0.74055311	     20.23376300	    -12.95583476	      0.00000000
     22.68000000	     -1.79738965	      6.78248773	      7.89919613	      2.24784613	      0.92769226	      1.00294896	     19.57838368	    -14.59463559	     -7.12289265	     88.27924370	      1.54076346	     -3.80537172	    -19.19533848	      0.00000000	     16.92564453	     14.15263228	      5.28692417	     42.06778835	      0.73422142	     20.87085114	    -12.64577662	      0.00000000
